<svg width="88" height="88" fill="none" xmlns="http://www.w3.org/2000/svg"><path d="M20.991 26.63C10.367 25.686 1.002 33.625.074 44.355A19.555 19.555 0 0 0 5.6 59.772l-.653 6.512c-.24 2.776 1.63 3.444 3.627 2.35l6.265-3.607c.907.22 1.835.376 2.791.462 10.624.937 19.99-6.995 20.924-17.725.921-10.738-6.94-20.197-17.563-21.134Z" fill="#FF9A34"/><path d="M67.002 19.392c10.624-.938 19.989 7.002 20.924 17.725A19.555 19.555 0 0 1 82.4 52.534l.654 6.511c.239 2.777-1.632 3.445-3.628 2.351l-6.265-3.608a18.92 18.92 0 0 1-2.791.462c-10.624.938-19.989-6.995-20.924-17.725-.921-10.73 6.932-20.189 17.556-21.133Z" fill="#032765"/><path d="M66.525 88h-45.05C20.11 88 19 86.752 19 85.213V2.787C19 1.248 20.109 0 21.475 0h45.05C67.89 0 69 1.248 69 2.787v82.426C69 86.752 67.891 88 66.525 88Z" fill="#F5D9BD"/><path d="M62.075 76.718h-36.15c-.69 0-1.243-.521-1.243-1.173v-63.09c0-.652.552-1.173 1.243-1.173h36.15c.69 0 1.243.521 1.243 1.173v63.09c0 .644-.56 1.173-1.243 1.173Z" fill="#FF9A34"/><path d="M39.077 48.392h-7.53a.981.981 0 0 1-.982-.978V39.91c0-.539.44-.977.982-.977h7.53c.542 0 .982.438.982.977v7.498c0 .546-.44.985-.982.985Z" fill="#F5D9BD"/><path fill-rule="evenodd" clip-rule="evenodd" d="M39.037 41.021a1.455 1.455 0 0 1-.017 2.043l-3.495 3.471a1.418 1.418 0 0 1-2.002.001l-1.786-1.77a1.455 1.455 0 0 1-.02-2.042 1.418 1.418 0 0 1 2.02-.02l.785.778 2.495-2.478a1.418 1.418 0 0 1 2.02.017Z" fill="#032765"/><path d="M56.01 42.65H44.289a.981.981 0 0 1-.982-.977v-.8c0-.54.44-.978.982-.978h11.72c.542 0 .983.439.983.978v.8c0 .539-.441.978-.982.978ZM53.126 47.014h-8.837a.981.981 0 0 1-.982-.977v-.8c0-.54.44-.979.982-.979h8.837c.541 0 .982.44.982.978v.8c0 .54-.441.978-.982.978Z" fill="#032765"/><path d="M39.077 67.56h-7.53a.981.981 0 0 1-.982-.978v-7.497c0-.539.44-.978.982-.978h7.53c.542 0 .982.44.982.978v7.497c0 .54-.44.978-.982.978Z" fill="#F5D9BD"/><path fill-rule="evenodd" clip-rule="evenodd" d="M39.036 60.188a1.455 1.455 0 0 1-.015 2.043l-3.495 3.48a1.418 1.418 0 0 1-2.005 0l-1.786-1.78a1.455 1.455 0 0 1-.015-2.041 1.418 1.418 0 0 1 2.02-.016l.783.78 2.493-2.481a1.418 1.418 0 0 1 2.02.015Z" fill="#032765"/><path d="M56.01 61.819H44.289a.981.981 0 0 1-.982-.978v-.8c0-.54.44-.978.982-.978h11.72c.542 0 .983.439.983.977v.801c0 .539-.441.978-.982.978ZM53.126 66.182h-8.837a.981.981 0 0 1-.982-.977v-.801c0-.539.44-.978.982-.978h8.837c.541 0 .982.44.982.978v.8c0 .54-.441.978-.982.978Z" fill="#032765"/><path d="M39.077 29.216h-7.53a.981.981 0 0 1-.982-.978v-7.497c0-.539.44-.978.982-.978h7.53c.542 0 .982.439.982.978v7.497c0 .54-.44.978-.982.978Z" fill="#F5D9BD"/><path fill-rule="evenodd" clip-rule="evenodd" d="M39.036 21.844a1.455 1.455 0 0 1-.015 2.042l-3.495 3.48a1.418 1.418 0 0 1-2.005 0l-1.786-1.779a1.455 1.455 0 0 1-.015-2.042 1.418 1.418 0 0 1 2.02-.015l.783.78 2.493-2.481a1.418 1.418 0 0 1 2.02.015Z" fill="#032765"/><path d="M56.01 23.482H44.289a.981.981 0 0 1-.982-.977v-.8c0-.54.44-.978.982-.978h11.72c.542 0 .983.438.983.977v.8c0 .54-.441.978-.982.978ZM53.126 27.838h-8.837a.981.981 0 0 1-.982-.978v-.8c0-.539.44-.978.982-.978h8.837c.541 0 .982.439.982.978v.8c0 .54-.441.978-.982.978ZM48.683 7.63h-8.837a.981.981 0 0 1-.982-.978v-.8c0-.54.44-.978.982-.978h8.837c.541 0 .982.439.982.977v.801c0 .539-.441.978-.982.978Z" fill="#032765"/><ellipse cx="44.568" cy="82.923" rx="1.705" ry="1.692" fill="#032765"/></svg>
