<svg width="40" height="40" fill="none" xmlns="http://www.w3.org/2000/svg"><g clip-path="url(#clip0_2940:20260)"><path d="M39.995 9.554v22.92c0 .708-.574 1.276-1.279 1.276H1.143C.513 33.75 0 33.238 0 32.61V9.554h39.995z" fill="#F5D9BD"/><path d="M0 9.554V7.39c0-.628.514-1.14 1.144-1.14h37.713c.63 0 1.143.512 1.143 1.14v2.164" fill="#032765"/><path d="M16.452 18H2.548A.55.55 0 0 1 2 17.453v-1.906A.55.55 0 0 1 2.548 15h13.904a.55.55 0 0 1 .548.547v1.906a.55.55 0 0 1-.548.547z" fill="#FF9300"/><path d="M10.452 23H2.548A.55.55 0 0 1 2 22.453v-1.906A.55.55 0 0 1 2.548 20h7.904a.55.55 0 0 1 .548.547v1.906a.55.55 0 0 1-.548.547z" fill="#032765"/><path d="M35.29 30H22.708c-.392 0-.709-.416-.709-.93V14.93c0-.514.317-.93.709-.93H35.29c.392 0 .709.416.709.93v14.14c0 .514-.32.93-.71.93z" fill="#fff"/><path d="M31.142 25.576h-7.107c-.354 0-.64-.357-.64-.799 0-.441.286-.798.64-.798h7.107c.353 0 .64.357.64.799 0 .441-.287.798-.64.798z" fill="#032765"/><path d="M27.515 27.972h-3.447c-.372 0-.672-.357-.672-.799 0-.441.3-.798.672-.798h3.447c.372 0 .672.357.672.798 0 .442-.3.799-.672.799zM33.652 22h-9.304c-.194 0-.348-.17-.348-.384v-5.232c0-.213.154-.384.348-.384h9.304c.194 0 .348.17.348.384v5.232c0 .213-.157.384-.348.384z" fill="#FF9300"/></g><defs><clipPath id="clip0_2940:20260"><path fill="#fff" d="M0 0h40v40H0z"/></clipPath></defs></svg>
