<svg width="88" height="88" fill="none" xmlns="http://www.w3.org/2000/svg"><path d="M60.987 88H15.023c-1.431 0-2.589-1.198-2.589-2.68V44.595c0-1.482 1.158-2.68 2.589-2.68h45.973c1.431 0 2.589 1.198 2.589 2.68v40.718c0 1.481-1.166 2.688-2.598 2.688Z" fill="#FF9A34"/><path d="M55.263 71.001H21.216c-.707 0-1.272-.585-1.272-1.316V51.763c0-.732.565-1.317 1.272-1.317h34.047c.707 0 1.272.585 1.272 1.317v17.922c0 .731-.574 1.316-1.272 1.316Z" fill="#032765"/><path d="M43.142 81.9H21.19c-1.104 0-1.996-.923-1.996-2.066 0-1.143.892-2.066 1.996-2.066h21.953c1.105 0 1.997.923 1.997 2.066 0 1.143-.892 2.067-1.997 2.067ZM55.219 81.9h-5.495c-1.104 0-1.996-.923-1.996-2.066 0-1.143.892-2.066 1.996-2.066h5.495c1.104 0 1.996.923 1.996 2.066.01 1.143-.892 2.067-1.996 2.067ZM74.403 61.007H28.438c-1.431 0-2.588-1.198-2.588-2.68V17.592c0-1.481 1.157-2.679 2.588-2.679h45.974c1.43 0 2.588 1.198 2.588 2.68v40.736c0 1.48-1.166 2.679-2.597 2.679Z" fill="#F5D9BD"/><path d="M57.009 54.88h-22.2c-1.105 0-1.997-.923-1.997-2.066 0-1.143.892-2.067 1.996-2.067h22.2c1.105 0 1.997.924 1.997 2.067 0 1.143-.892 2.066-1.996 2.066Z" fill="#FF9A34"/><path d="M69.085 54.88H63.59c-1.105 0-1.997-.923-1.997-2.066 0-1.143.892-2.067 1.997-2.067h5.495c1.104 0 1.996.924 1.996 2.067 0 1.143-.892 2.066-1.996 2.066Z" fill="#032765"/><path d="M68.678 43.999H34.631c-.707 0-1.272-.585-1.272-1.317V24.76c0-.731.565-1.317 1.272-1.317h34.047c.707 0 1.272.586 1.272 1.317v17.922c0 .732-.574 1.317-1.272 1.317Z" fill="#FF9A34"/><path d="M25.078 4.933A7.629 7.629 0 0 0 21.32.799c-4.494-2.165-9.793.328-11.739 4.396-1.207 2.428-.939 5.774.269 8.267 1.207 2.56 3.42 4.462 5.433 6.43 2.952 2.888 5.769 5.25 8.855 7.874.603.525 1.408.525 2.012 0 2.012-1.706 6.372-5.446 8.854-7.873 2.013-1.969 4.226-3.872 5.434-6.43 1.14-2.494 1.476-5.71.268-8.137C38.695 1.258 33.395-1.3 28.901.864a7.408 7.408 0 0 0-3.823 4.069Z" fill="#032765"/></svg>
