<svg width="88" height="88" fill="none" xmlns="http://www.w3.org/2000/svg"><path d="M66.858 88H22.142A3.143 3.143 0 0 1 19 84.857V3.143A3.144 3.144 0 0 1 22.142 0h44.716A3.144 3.144 0 0 1 70 3.143v81.714A3.143 3.143 0 0 1 66.858 88Z" fill="#F5D9BD"/><path d="M63.53 76.662H25.46a1.565 1.565 0 0 1-1.572-1.572V13.466c0-.873.699-1.571 1.571-1.571h38.07c.873 0 1.572.698 1.572 1.571V75.09c0 .862-.699 1.572-1.572 1.572Z" fill="#FF9A34"/><rect x="28" y="22" width="33" height="42" rx="2" fill="#F5D9BD"/><path d="M56.97 60H32.03c-.573 0-1.03-.51-1.03-1.147v-4.706c0-.637.457-1.147 1.03-1.147h24.94c.572 0 1.03.51 1.03 1.147v4.706c0 .63-.458 1.147-1.03 1.147Z" fill="#FF9A34"/><path d="M49.05 6.973h-9.111a.997.997 0 0 1-.993-.993c0-.545.447-.993.993-.993h9.111c.546 0 .993.448.993.993a.997.997 0 0 1-.993.993ZM44.5 84.584a2.084 2.084 0 1 0-.001-4.168 2.084 2.084 0 0 0 0 4.168Z" fill="#032765"/><mask id="a" style="mask-type:alpha" maskUnits="userSpaceOnUse" x="36" y="28" width="17" height="20"><path d="M53 47.11V28H36v19.11h17Z" fill="#fff"/></mask><g mask="url(#a)"><path fill-rule="evenodd" clip-rule="evenodd" d="m47.998 32.807-.397.397v6.768h-3.186v-2.388h-.995v2.388h-3.185v-6.768l-.399-.397v-.797h8.162v.797ZM43.918 28a7.919 7.919 0 0 0 0 15.835v3.275l5.554-5.554a7.89 7.89 0 0 0 2.363-5.638A7.917 7.917 0 0 0 43.918 28Z" fill="#032765"/></g><path fill="#032765" d="M39 32h9v9h-9z"/></svg>
