<svg width="88" height="88" fill="none" xmlns="http://www.w3.org/2000/svg"><g clip-path="url(#a)"><path d="M66.016 88H22.17c-1.699 0-3.077-1.408-3.077-3.143V3.143C19.093 1.408 20.471 0 22.17 0h43.846c1.699 0 3.077 1.408 3.077 3.143v81.714c0 1.735-1.368 3.143-3.077 3.143Z" fill="#F1D6BA"/><path d="M19.093 3.143V6h50V3.143C69.093 1.408 67.715 0 66.016 0H22.17c-1.699 0-3.077 1.408-3.077 3.143Z" fill="#032765"/><path d="M22.077 88h43.846C67.633 88 69 86.583 69 84.837V64.163H19v20.674C19 86.583 20.378 88 22.077 88Z" fill="#FF9A34"/><path d="M56 64H33v24h23V64Z" fill="#032765"/><path d="M31.455 28.611h-4.042c-.853 0-1.535-.698-1.535-1.571V15.094c0-.873.682-1.571 1.535-1.571h4.042c.853 0 1.536.698 1.536 1.57V27.04c0 .862-.683 1.571-1.536 1.571ZM31.455 52.143h-4.042c-.853 0-1.535-.698-1.535-1.571V38.625c0-.872.682-1.57 1.535-1.57h4.042c.853 0 1.536.698 1.536 1.57v11.947c0 .862-.683 1.571-1.536 1.571Z" fill="#FF9A34"/><path d="M31.455 22.182h-4.042c-.853 0-1.535-.698-1.535-1.571v-5.54c0-.873.682-1.571 1.535-1.571h4.042c.853 0 1.536.698 1.536 1.571v5.54c0 .862-.683 1.571-1.536 1.571Z" fill="#032765"/><path d="M47.163 28.611h-4.041c-.853 0-1.536-.698-1.536-1.571V15.094c0-.873.683-1.571 1.536-1.571h4.041c.854 0 1.536.698 1.536 1.57V27.04c0 .862-.682 1.571-1.536 1.571ZM47.163 52.089h-4.041c-.853 0-1.536-.699-1.536-1.572V38.572c0-.873.683-1.571 1.536-1.571h4.041c.854 0 1.536.698 1.536 1.571v11.947c0 .861-.682 1.57-1.536 1.57ZM61.806 28.556h-4.042c-.853 0-1.536-.698-1.536-1.57V15.038c0-.873.683-1.571 1.536-1.571h4.041c.854 0 1.536.698 1.536 1.571v11.946c0 .862-.693 1.572-1.535 1.572ZM61.806 52.089h-4.042c-.853 0-1.536-.699-1.536-1.572V38.572c0-.873.683-1.571 1.536-1.571h4.041c.854 0 1.536.698 1.536 1.571v11.947c0 .861-.693 1.57-1.535 1.57Z" fill="#FF9A34"/><path d="M61.806 42.16h-4.042c-.853 0-1.536-.699-1.536-1.571V38.57c0-.873.683-1.571 1.536-1.571h4.041c.854 0 1.536.698 1.536 1.571v2.018c0 .861-.693 1.57-1.535 1.57Z" fill="#032765"/><path d="M50 70.392C49.977 67.968 47.53 66 44.5 66s-5.477 1.967-5.5 4.392V88h11V70.392Z" fill="#F1D6BA"/><path d="M33 64h23s-.65-5-11.431-5C33.787 59 33 64 33 64Z" fill="#032765"/></g><defs><clipPath id="a"><path fill="#fff" d="M0 0h88v88H0z"/></clipPath></defs></svg>
