<svg width="420" height="340" fill="none" xmlns="http://www.w3.org/2000/svg"><g clip-path="url(#clip0_290:8152)"><path fill="#FDF0E5" d="M0 0h420v340H0z"/><path d="M192.854 383.398a5.236 5.236 0 0 0 2.675-.732 5.267 5.267 0 0 0 1.932-1.996c4.529-8.273 5.151-15.401 1.831-21.191-4.441-7.762-15.153-11.74-32.749-12.154-23.351-.545-25.182-1.76-27.223-9.935-2.365-9.531 5.413-17.847 5.492-17.935a5.295 5.295 0 0 0-.228-7.344 5.237 5.237 0 0 0-7.313-.004c-.491.501-11.956 12.54-8.146 27.844 4.274 17.169 15.959 17.442 37.172 17.935 18.263.431 22.774 4.937 23.886 6.855 1.69 2.957-.114 7.515-1.927 10.833a5.297 5.297 0 0 0 1.997 7.127 5.246 5.246 0 0 0 2.601.697zM247.458 198.873s.481-12.396-3.807-16.704c0 0-4.337-.692-9.315 6.839M202.708 301.309a16.247 16.247 0 0 1-2.172 4.321c-4.8 7.172-12.131 12.162-19.27 16.967l9.635.731a5.97 5.97 0 0 1 2.365.51 2.074 2.074 0 0 1 1.209 1.954c-.106.924-.981 1.522-1.752 1.997a23.164 23.164 0 0 1-4.599 2.297c-3.95 1.276-8.259.335-12.262-.88-2.409-.73-4.949-1.681-6.394-3.758a2.812 2.812 0 0 1-.596-1.953c.08-.389.232-.759.447-1.092 1.621-2.877 3.977-5.28 6.289-7.603a621.701 621.701 0 0 0 9.022-9.399 19.949 19.949 0 0 0 2.627-3.176 24.319 24.319 0 0 0 1.822-4.251 57.314 57.314 0 0 1 2.628-6.002 4.477 4.477 0 0 1 1.138-1.557 3.929 3.929 0 0 1 1.997-.652 15.245 15.245 0 0 1 5.387.37 4.949 4.949 0 0 1 2.426 1.232c1.603 1.734.675 7.832.053 9.944zM207.982 293.864s5.185 25.573 5.185 30.757c0 5.183-.21 7.744 7.077 8.369s11.457-.625 9.372-5.65c-2.085-5.025-8.12-1.672-8.54-2.719-.42-1.047.631-28.038.631-33.063 0-5.025-13.953-4.4-13.953-4.4l.228 6.706z" fill="#032765"/><path d="M216.915 207.357c-1.463 5.351-1.962 10.948-3.652 16.228-4.897 15.33-19.104 25.855-33.853 32.139-9.197 3.907-19.042 6.67-27.153 12.558a42.469 42.469 0 0 0-11.656 13.103 42.679 42.679 0 0 0-5.389 16.721c-.42 4.188-.175 8.545 1.507 12.399a22.372 22.372 0 0 0 8.592 9.601c2.076 1.338 4.38 2.464 6.009 4.295 1.629 1.83 2.549 4.673 1.296 6.811 14.268 4.867 32.592 4.083 47.508 1.998 1.34-.185 1.831-2.64 1.472-3.969-1.805-4.761-21.687-1.619-31.69-4.4 7.726-2.728 15.153-6.9 20.33-13.28 5.176-6.38 7.839-10.252 5.412-18.12 7.008 1.84 17.991.379 24.569-2.719 12.017 11.801 11.571 25.626 13.865 42.347 3.644.322 7.312.215 10.931-.317 2.12-.317 4.538-.546 4.292-2.693a4.536 4.536 0 0 0-1.22-2.379 4.5 4.5 0 0 0-2.345-1.273c-1.673-.193-3.503-.105-4.834-1.188l-4.835-36.873a38.239 38.239 0 0 1-.465-9.478c.43-3.669 1.901-7.128 3.119-10.613a81.894 81.894 0 0 0 4.563-28.75c-.035-3.67.044-8.07 3.162-9.83 1.541-.88 5.019-1.373 6.788-1.558 3.749-.387 6.193-2.006 6.884-5.729a7.457 7.457 0 0 0-.481-5.033c-4.914-8.449-4.073-15.11-10.677-19.792-4.143-2.931-9.942-5.421-13.139-9.39-1.962-2.499-3.67-6.398-6.84-6.019-1.533 4.188-2.628 8.993-5.142 12.716-2.794 4.233-5.518 7.419-6.928 12.487z" fill="#FF9934"/><path d="M258.003 215.937a1.518 1.518 0 0 0-.403 1.417c.136.506.311 1 .525 1.478.089.398.293.759.587 1.039.202.127.429.208.666.237a1.62 1.62 0 0 0 1.401-.114c1.7-1.531-.849-5.65-2.776-4.057zM140 289h68v56h-68z" fill="#032765"/><path d="M192.28 115.428l.237.237c-.237 1.816-1.106 2.606-2.449 4.422.119-.552.158-1.145.158-1.816v-.829-1.421c.514-.356 1.106-.632 1.778-.632.079.039.158.039.276.039z" fill="#ACA4D9"/><path d="M176.085 101.847c-.119.948-.198 1.738-.198 2.369 0 .079 3.121 12.99 3.714 20.531.395-1.659.711-3.356.711-4.857 0-.75-.04-1.46-.04-2.21 0-5.962 6.044-13.661 7.9-13.661.869 0 1.501.671 1.896 1.579.395.869.554 1.935.554 2.843 0 1.855-.396 2.606-.396 6.83v3.04c0 .671-.079 1.264-.158 1.816-.513 2.646-2.014 4.146-2.014 7.225 0 .632.987 9.476.987 11.095 0 21.28-10.546 15.2-23.068 42.679-6.518-8.291-16.512-11.371-21.726-12.437 2.567-2.368 4.898-4.935 7.466-7.264 5.372-4.856 11.969-11.331 16.077-17.925.434-2.053.829-4.145.829-5.409 0-1.263-.118-2.013-.118-3.395 0-1.5.079-2.961.079-4.461 0-1.066-.04-2.132-.04-3.198 0-2.922.553-7.423 1.185-11.529-.513-3.593-1.185-7.146-1.185-10.423 0-7.501 4.227-16.622 5.728-16.622 1.777 0 2.409 2.882 2.409 4.738.04 3.948-.316 6.712-.592 8.646z" fill="#BBB8DC"/><path d="M193.583 101.137c0 1.027-1.303 1.935-3.555 4.422-.395-.908-1.027-1.579-1.896-1.579-1.856 0-7.9 7.699-7.9 13.66 0 .711.039 1.461.039 2.211 0 1.501-.276 3.198-.711 4.857-.592-7.581-3.713-20.452-3.713-20.531 0-.631.079-1.382.198-2.369 3.476-3.277 10.033-8.922 12.917-8.922.237 0 .474.04.711.079.158.276.355.592.355.908 0 2.447-9.599 9.238-9.994 12.436.079.079.158.119.198.198 3.476-1.856 7.387-6.633 11.85-6.633 1.027.04 1.501.632 1.501 1.263z" fill="#ACA4D9"/><path d="M18 395.586s1.861-24.384 12.356-48.449c10.495-24.065 14.732-29.732 14.732-29.732h117.938l5.88 29.732 7.546 23.152s28.83-7.668 28.078 6.101c-.753 13.728-2.812 19.156-2.812 19.156L18 395.586z" fill="#1876DB"/><path d="M152.304 160.121c10.508 1.579 18.606.513 31.562 16.701 12.957 16.148 37.368 107.863 73.71 123.616 4.937-13.897 20.106-44.732 26.15-37.231 9.243 11.252 19.948 21.675 20.54 37.231.632 15.595.553 41.1-30.613 52.431-31.167 11.332-60.832-8.804-75.369-17.529-18.21-10.858-28.046-29.414-35.591-35.81-1.856 5.962.869 13.424 0 18.556H45.058c2.133-6.159 4.503-12.239 6.557-18.437-10.981-21.123-30.613-79.832-30.613-108.14 0-23.649 10.468-38.85 33.576-38.85 8.335 0 14.497 2.053 20.185 3.317-7.624 2.29-22.753 2.526-22.753 15.003 0 4.382 6.953 5.764 11.456 5.764 16.116 0 41.99-11.055 64.466-15.24 5.254-.987 10.31-1.579 15.011-1.579 2.686.039 6.715-.198 9.361.197z" fill="#1876DB"/><path d="M81.124 157.003c2.607-7.225 5.095-15.043 5.609-22.426.355.513 6.478-2.211 6.478-5.567 0-2.013-.316-4.264-.316-6.554 0-22.307 31.404-3.277 31.404-22.267 0-7.502-7.743-13.621-7.743-19.86 0-3.434 2.055-6.316 6.202-6.316 3.239 0 7.15 1.342 10.705 1.342 4.898 0 9.046-2.487 9.678-14.253 2.133 3 4.503 5.923 7.505 8.489 1.896 1.619 13.905 5.843 13.905 8.923 0 3.158-6.637 9.752-10.626 12.713.395 1.42.75 3.316 1.066 5.37-2.093.828-4.661 1.026-7.189 1.026-2.252 0-4.424-.158-6.202-.158-1.224 0-3.792.04-3.792 1.303 0 1.697 6.32 6.711 14.892 6.711 1.146 0 2.291-.079 3.437-.276.395 3.909.671 7.304.671 8.489 0 10.462-6.478 12.357-14.181 12.357-7.702 0-9.203-1.066-12.127-1.066a7.749 7.749 0 0 0-3.041.592c-1.067 2.922-.869 6.989-.869 11.805 0 7.857.474 17.293 1.382 24.163-22.476 4.185-48.35 15.24-64.466 15.24-4.543 0-11.455-1.382-11.455-5.764 0-12.477 15.129-12.713 22.752-15.003 2.094.473 4.227.868 6.32.987zm74.934-72.725c0-.632-.356-1.027-.948-1.027-1.778 0-3.911 3.751-4.464 6.08 2.765-1.54 5.412-2.96 5.412-5.053z" fill="#BBB8DC"/><path d="M154.992 96.557c.434 2.724.829 5.803 1.106 8.607a20.218 20.218 0 0 1-3.437.276c-8.532 0-14.892-5.014-14.892-6.712 0-1.263 2.568-1.303 3.792-1.303 1.778 0 3.95.158 6.202.158 2.567 0 5.175-.197 7.229-1.026z" fill="#fff"/><path d="M155.15 83.212c.553 0 .948.395.948 1.027 0 2.132-2.686 3.514-5.372 5.053.513-2.329 2.607-6.08 4.424-6.08z" fill="#BBB8DC"/><path d="M110.039 37.058c-20.423 1.066-32.787 13.819-38.593 21.439-4.74 6.277-8.177 14.529-8.177 26.057 0 3.712.276 7.107.75 10.226-.79-.079-1.58-.118-2.37-.118-13.035 0-23.621 10.896-23.621 24.32s10.586 24.321 23.621 24.321c9.362 0 17.42-5.607 21.252-13.74a89.369 89.369 0 0 1 3.832 5.054c.355.513 6.478-2.211 6.478-5.567 0-2.014-.316-4.264-.316-6.554 0-22.307 31.404-3.277 31.404-22.268 0-7.501-7.743-13.62-7.743-19.859 0-3.435 2.054-6.317 6.202-6.317 3.239 0 7.15 1.343 10.705 1.343 4.898 0 9.046-2.488 9.678-14.253-8.019-11.37-12.641-25.15-33.102-24.084z" fill="#032765"/><path d="M370.866 199.188a140.33 140.33 0 0 1-4.653 15.318c-2.711 7.33-12.006 11.689-19.232 14.655-7.226 2.966-14.981 5.296-20.789 10.497-10.423 9.407-11.524 25.609-8.205 39.252 3.319 13.644 10.201 26.244 13.298 39.941 2.795 12.377 2.34 25.619-2.271 37.44-2.88 7.415-7.316 14.142-9.635 21.716L247.2 338.702c1.699-6.34 6.654-12.553 6.654-19.115.026-5.339 3.218-22.881 5.728-26.482 2.578-3.708 3.869-8.125 5.129-12.458 6.088-21.023 12.178-42.048 18.269-63.075 2.229-7.706 4.817-15.953 11.201-20.815 5.426-4.142 12.584-5.021 19.37-5.762 2.837-.308 5.823-.594 8.512.148 2.69.741 4.998 2.436 7.517 3.617 11.504 5.387 24.913-.46 37.617-.121 1.35.031 2.917.27 3.605 1.435.535.921.313 2.081.064 3.114z" fill="#FF9934"/><path d="M287.962 224.002c-1.355 5.826 1.953 11.743 5.976 16.17 4.024 4.428 8.926 8.162 11.932 13.353 1.292 2.214 2.372 4.819 4.68 5.932 1.403.678 3.023.662 4.563.868a15.743 15.743 0 0 1 9.275 4.767c2.334-.927 2.827-4.163 1.932-6.515-.895-2.351-2.705-4.237-3.822-6.488-3.388-6.832.217-15.571-3.118-22.425-1.673-3.442-4.764-5.731-7.327-8.474-1.386-1.467-2.795-2.95-3.673-4.799-.731-1.536-.678-4.518-2.118-5.556-5.384-3.882-17.183 8.369-18.3 13.167zM365.7 204.432a6.922 6.922 0 0 1-3.812-2.341 48.376 48.376 0 0 1-2.901-4.052 6.324 6.324 0 0 1-.836-1.467 1.323 1.323 0 0 1 .413-1.515 2.297 2.297 0 0 1 1.096-.169c3.107-.228 6.426-.53 9.401-.837a2.714 2.714 0 0 1 1.128 0 2.12 2.12 0 0 1 1.127 1.022 6.89 6.89 0 0 1 .53 5.159c-.932 3.686-2.366 5.148-6.146 4.2z" fill="#032765"/></g><defs><clipPath id="clip0_290:8152"><path fill="#fff" d="M0 0h420v340H0z"/></clipPath></defs></svg>
