<svg width="420" height="340" fill="none" xmlns="http://www.w3.org/2000/svg"><g clip-path="url(#clip0_290:8100)"><path fill="#FDF0E5" d="M0 0h420v340H0z"/><path fill="#F5D9BD" d="M71.279 16.705h275.449v309.262H71.279z"/><path fill="#fff" d="M102.192 47.099h215.361v278.753H102.192z"/><path fill="#164DB4" d="M113.999 55h193v271h-193z"/><path fill="#1876DB" d="M113.999 55h105v271h-105z"/><path fill="#032765" d="M136.431 305.35h145.147v20.617H136.431z"/><path fill="#F5D9BD" d="M113.999 55h35v271h-35zM271.999 55h35v271h-35z"/><ellipse cx="176.408" cy="36.529" rx="3.269" ry="3.267" fill="#FF9A34"/><ellipse cx="186.215" cy="36.528" rx="3.269" ry="3.267" fill="#fff"/><ellipse cx="196.022" cy="36.528" rx="3.269" ry="3.267" fill="#fff"/><ellipse cx="205.829" cy="36.528" rx="3.269" ry="3.267" fill="#fff"/><ellipse cx="225.441" cy="36.528" rx="3.269" ry="3.267" fill="#fff"/><ellipse cx="215.635" cy="36.528" rx="3.269" ry="3.267" fill="#fff"/><ellipse cx="235.249" cy="36.528" rx="3.269" ry="3.267" fill="#fff"/><ellipse cx="245.055" cy="36.528" rx="3.269" ry="3.267" fill="#fff"/><path d="M253.875 284.67c2.097 2.622 4.282 2.01 4.282 6.176 0 4.573-3.467 5.884-6.146 7.836-.758.553-1.457 1.136-1.981 1.864-2.389 3.233-1.923 7.049-4.02 11.36h-14.215c-.029-.291-.029-.553-.029-.815 0-6.176 10.195-5.68 10.195-17.245 0-.757-.117-1.369-.321-1.893 4.37-.408 9.438-3.525 12.089-7.516.029.088.088.146.146.233z" fill="#FF9934"/><path d="M258.477 186.62c0 3.671-8.389 9.322-14.943 13.109.524-2.098.845-4.224.845-6.38 0-3.699-.933-7.34-2.214-10.632-1.777-4.631-4.253-8.535-5.71-11.011 3.845-8.855 7.254-18.322 7.749-27.964 3.175 0 7.719-.146 7.719 4.486 0 2.563-1.107 6.146-2.447 9.846-1.136 3.116-2.418 6.35-3.321 9.117a29.347 29.347 0 0 0-.873 3.146c-.175.787-.263 1.515-.263 2.127-.029 3.728 13.458 7.69 13.458 14.156z" fill="#FDF0E5"/><path d="M253.701 284.437c-2.651 3.991-7.69 7.107-12.089 7.515-.524-1.456-1.631-2.476-2.796-4.661-.262-.466-.496-1.048-.729-1.631l12.992-8.331c.699 3.7 1.631 5.768 2.622 7.108z" fill="#92D6E3"/><path d="M250.846 158.57c.728.262 1.136 1.048.873 1.776l-2.155 6.438c-.262.787-1.107 1.223-1.894.932l-1.514-.524c.903-2.767 2.184-5.972 3.32-9.118l1.37.496z" fill="#FF9934"/><path d="M244.204 143.772c.029-.787.059-1.602.059-2.389-1.182-3.24-5.912-9.325-15.381-7.748-2.884 3.99-3.67 7.719-3.67 13.166 0 4.486.699 9.409 2.243 12.584a2.27 2.27 0 0 1 1.515.612c.437.408.699.99.699 1.602l.029 2.01h.116c.204 0 .408.029.583.058.32.466.524.991.524 1.602 0 .816-.262 1.69-.262 2.593 0 2.068 1.369 2.359 1.369 3.787v.029c-.029.786-.961 1.136-.961 1.951 0 .903.874 1.603.874 2.476 0 .962-1.078 1.661-2.505 2.185l.116 4.457h12.613c-1.777-4.632-4.253-8.564-5.709-11.011 3.845-8.855 7.253-18.322 7.748-27.964z" fill="#fff"/><path d="M232.028 171.619v.029c-.029.787-.961 1.107-.961 1.952 0 .903.874 1.631.874 2.476 0 .961-1.078 1.689-2.505 2.184-2.039.729-4.777 1.02-6.117 1.02-2.156 0-4.195-.437-6.35-1.34a358.923 358.923 0 0 1-4.282 2.884c-.117-3.321-.729-6.642-2.389-9.467l2.592-.816c1.894-1.981 4.049-4.923 6.467-4.923h.35c.349.029.611.146.611.466 0 .729-1.252 2.156-1.252 2.651 0 .117.058.204.233.204 1.777 0 7.748-4.661 10.137-5.389.087 0 .146 0 .233-.029h.117c.203 0 .407.029.582.058.321.466.524.991.524 1.602 0 .816-.262 1.69-.262 2.593.029 2.126 1.398 2.418 1.398 3.845z" fill="#92D6E3"/><path d="M229.552 182.717l.116 4.778a2.56 2.56 0 0 1-2.359 2.621l-4.399.408-19.546 1.748-9.845.874a1.974 1.974 0 0 1-1.544-.525 1.97 1.97 0 0 1-.67-1.485c4.806-.175 14.244-5.593 21.381-10.283a151.508 151.508 0 0 0 4.282-2.884c2.155.903 4.195 1.34 6.35 1.34 1.34 0 4.078-.32 6.117-1.019l.117 4.427z" fill="#F4D8BC"/><path d="M214.347 293.701l-.262-5.273c.146 0 .291 0 .437-.029l14.361-1.689c-.699 4.602-3.117 8.651-3.117 12.642 0 1.34.291 2.534.641 3.612-1.544 1.427-3.496 2.156-5.593 2.156-1.486 0-4.952-.729-5.651-1.836a4.858 4.858 0 0 1-.379-.407c.029-.029.029-.059.058-.088l-.495-9.088z" fill="#92D6E3"/><path d="M228.387 309.227c0 .845-.204 1.718-.699 2.68h-29.305c.292-5.477 10.167-2.185 15.323-7.632.378-.408 1.019-3.263 1.019-3.263s2.418 1.544 5.593 1.544 3.932-1.049 5.447-2.447c.67 4.603 2.622 7.02 2.622 9.118z" fill="#FF9934"/><path d="M225.211 146.771c0 4.486.7 9.409 2.243 12.584h-.145l-4.02.175c-1.34-3.554-2.068-7.894-2.068-12.089 0-9.496 2.738-12.001 4.66-14.157.758.233 1.544.35 2.331.35.233 0 .437 0 .641-.029-2.884 3.991-3.642 7.719-3.642 13.166z" fill="#F4D8BC"/><path d="M223.202 131.944c.758.612 1.69 1.078 2.709 1.369-1.922 2.156-4.66 4.661-4.66 14.157 0 4.195.728 8.506 2.068 12.089l-1.369.058a2.362 2.362 0 0 0-2.156 1.806h-.058l-17.827 1.748-3.321 11.856 11.71-3.583c1.689 2.825 2.272 6.146 2.389 9.467-7.137 4.69-16.575 10.108-21.381 10.283h-.233c-3.875 0-5.273-2.709-5.273-6.642 0-5.447 2.097-11.506 4.34-17.419 1.544-4.02 3.146-7.982 4.224-11.594-.145-1.748-.291-3.262-.291-5.097 0-6.642 3.495-11.769 9.467-13.75 1.748-.582 3.67-.903 5.797-.903h.99c.466 0 .932 0 1.427.088.612-.991 1.544-1.777 2.651-2.33 2.185-1.166 5.04-1.603 7.574-1.603.291-.058.699-.029 1.223 0z" fill="#fff"/><path d="M216.244 133.417c.491-.12.924-.229 1.187-.277 2.57-.469 5.513-.553 7.888.22-.059-1.317-.172-2.594-.202-3.917.297-.024.619-.083.911-.136 1.986-.363 3.168-.669 2.272-5.577a26.825 26.825 0 0 0-.796-3.205c.403-.768.737-1.583.652-2.051-.229-1.256-1.993-.994-5.187-2.947-1.702 3.571-6.801 4.411-6.801 4.411s2.178.357 2.384 2.976c.207 2.618-2.167 4.169-2.167 4.169s1.034 1.531 1.173 2.291c.267 1.46-.287 2.89-1.314 4.043z" fill="#92D6E3"/><path d="M219.736 161.89l-.029 3.787h-.35c-2.389 0-4.573 2.942-6.467 4.923l-2.592.815-11.71 3.583 3.321-11.856 17.827-1.747h.058c-.029.174-.058.32-.058.495z" fill="#F4D8BC"/><path d="M262.482 144.822c-3.262-10.577-8.031-16.714-12.795-26.7l-6.086 3.942.007.023 7.749 24.959c-2.399-1.322-4.915-4.567-7.231-6.118l-5.562 17.799c6.432 2.65 14.455 5.057 19.117 3.619 7.342-2.263 7.015-10.342 4.801-17.524z" fill="#fff"/><path d="M256.264 271.038c-6.176-8.011-12.235-16.225-18.585-24.178-4.486-5.622-9.088-11.098-13.982-16.283 3.7-4.894 8.185-10.05 12.031-15.497 3.466-4.894 6.408-9.991 7.777-15.351.524-2.097.845-4.224.845-6.379 0-3.7-.932-7.341-2.214-10.633h-12.613l.116 4.661c.03 1.427-1.048 2.651-2.476 2.767l-4.282.379-19.545 1.748 1.893 32.596c-1.34 3.058-2.33 6.233-2.33 9.787 0 2.068 1.31 5.68 3.466 10.137l2.272 38.771c.058 1.166.524 2.243 1.282 3.117.175.204.379.408.582.583a5.19 5.19 0 0 0 3.525 1.194c.146 0 .291 0 .437-.029l14.361-1.69 3.495-.407 5.739-.641 12.992-8.331 4.602-2.942c.554-.35.903-.903 1.02-1.544.116-.641 0-1.311-.408-1.835z" fill="#032765"/><path d="M231.148 102.957c-1.565-.801-3.419-1.036-5.405-.673-2.425.442-4.493 1.846-5.912 3.826a13.718 13.718 0 0 0-.965-1.152c-2.557-2.763-5.75-3.72-8.525-3.214-3.506.64-6.277 3.651-6.125 8.453a9.948 9.948 0 0 0-2.279-.58 10.919 10.919 0 0 0-3.646.032c-4.149.757-6.269 3.197-7.271 6.64l-.069-.048a10.796 10.796 0 0 0-2.088-1.189c-1.74-.769-3.852-1.259-6.131-.843a7.883 7.883 0 0 0-4.136 2.144c-1.611 1.592-2.478 3.954-1.972 6.729.038.204.08.438.147.637-1.882 1.43-3.365 4.055-2.784 7.24.8 4.381 5.137 8.299 10.016 7.408 2.862-.522 5.092-1.865 6.512-3.845 1.35 1.444 3.117 2.691 5.524 2.976.959.127 2.008.087 3.147-.121 3.067-.56 4.686-2.274 5.617-4.286 1.38 2.103 3.182 3.374 6.023 3.067.205-.038.415-.046.648-.089a8.018 8.018 0 0 0 2.273-.777 8.34 8.34 0 0 0 2.466-1.868c1.028-1.154 1.582-2.583 1.32-4.015-.138-.759-1.172-2.291-1.172-2.291s2.373-1.55 2.167-4.169c-.207-2.618-2.385-2.975-2.385-2.975s5.128-.846 6.802-4.411c3.217 1.918 4.952 1.662 5.186 2.947.086.467-.219 1.278-.652 2.051.282.884.583 2.037.797 3.205.89 4.879-.286 5.214-2.273 5.577-.292.053-.584.106-.911.136.025 1.293.114 2.605.202 3.917 1.217.382 2.261.976 3.085 1.852.457-.144.948-.264 1.415-.349l.818-.149.176-.032c2.132-.39 4.148-.426 5.978-.156.833-1.058 1.345-2.389 1.379-4.025 1.945 2.06 4.461 2.778 6.739 2.362 2.25-.41 4.233-1.95 5.142-4.41 1.557 1.256 3.457 1.905 5.969 1.446 3.359-.613 5.71-3.608 5.087-7.025a7.33 7.33 0 0 0-.458-1.517c1.518-.941 2.338-2.57 1.959-4.644-.613-3.359-3.996-6.515-7.472-5.88-1.461.266-2.682 1.184-3.749 2.284-1.267-4.297-4.723-8.013-9.124-8.145a7.76 7.76 0 0 0-1.697.129c-2.541.464-4.224 1.827-5.312 3.143-.801-2.571-2.245-4.36-4.081-5.323z" fill="#FF9934"/><path d="M409 151.061v2.495c0 .783-.644 1.444-1.461 1.444h-49.183a1.455 1.455 0 0 1-1.461-1.444v-2.495c0-.783.643-1.444 1.461-1.444h49.183c.792.025 1.461.661 1.461 1.444zM399.113 125.787a1.83 1.83 0 0 0-2.278-.563 64.981 64.981 0 0 0-4.854 2.52c.768-1.982 1.436-4.208 1.981-6.263.223-.808-.198-1.664-.966-2.031a1.779 1.779 0 0 0-2.179.538c-1.882 2.52-3.839 5.481-4.953 8.025.124-3.229-.495-7.438-1.164-10.839a1.428 1.428 0 0 0-1.412-1.174c-.693 0-1.312.465-1.461 1.125-.767 3.328-1.51 7.463-1.486 10.668-1.287-2.814-3.566-6.092-5.572-8.735a1.558 1.558 0 0 0-1.882-.465 1.514 1.514 0 0 0-.842 1.738c.694 2.813 1.635 6.067 2.799 8.685-2.204-1.443-4.904-2.789-7.306-3.865a1.631 1.631 0 0 0-1.981.513 1.573 1.573 0 0 0 .124 2.007c2.699 2.887 6.117 6.214 8.94 7.731h15.404c2.674-1.125 6.141-4.33 8.989-7.291.57-.661.619-1.615.099-2.324z" fill="#F5D9BD"/><path d="M373.457 135.402a1.07 1.07 0 0 0-.792.343c-.198.22-.297.513-.273.807.496 4.6 2.13 9.542 4.978 13.065h11.937c2.872-3.572 4.482-8.563 4.977-13.187a.895.895 0 0 0-.247-.734.98.98 0 0 0-.718-.318h-19.862v.024z" fill="#fff"/><path d="M381.474 72.488c4.888 0 8.849-3.915 8.849-8.744 0-4.83-3.961-8.744-8.849-8.744-4.887 0-8.849 3.915-8.849 8.744 0 4.83 3.962 8.744 8.849 8.744zM386.019 81.14h20.399c.415 0 .813.164 1.107.455.293.29.459.683.46 1.094v2.687a1.55 1.55 0 0 1-.461 1.093c-.294.29-.691.454-1.106.456h-47.67c-.415 0-.813-.162-1.108-.45a1.544 1.544 0 0 1-.467-1.09v-2.687c.001-.41.167-.804.461-1.094.294-.29.693-.454 1.109-.455h27.276v-.01z" fill="#F5D9BD"/><path d="M396.315 64.788H366.63v.127c0 .627 0 1.265.028 1.908-.028 1.163-.028 2.932.331 4.378.495 3.777 1.555 7.383 3.751 9.949h21.466c2.196-2.566 3.269-6.172 3.753-9.949.356-1.451.356-3.215.329-4.378.02-.643.027-1.28.027-1.908v-.127z" fill="#fff"/><path d="M42.479 210.345H32.237c-6.074 0-10.947-4.382-10.947-9.704v-29.365c0-5.385 4.944-9.705 10.947-9.705H42.48c6.074 0 10.947 4.383 10.947 9.705v29.365c0 5.384-4.873 9.704-10.947 9.704z" fill="#F5D9BD"/><path d="M37.282 202.117a5.874 5.874 0 0 0 5.873-5.876 5.874 5.874 0 0 0-5.873-5.877 5.874 5.874 0 0 0-5.871 5.877 5.874 5.874 0 0 0 5.871 5.876zM37.282 183.312a5.874 5.874 0 0 0 5.873-5.876 5.874 5.874 0 0 0-5.873-5.876 5.874 5.874 0 0 0-5.871 5.876 5.874 5.874 0 0 0 5.871 5.876z" fill="#fff"/><path d="M37.282 199.766a3.525 3.525 0 0 0 3.523-3.526 3.525 3.525 0 0 0-3.523-3.526 3.525 3.525 0 0 0-3.523 3.526 3.525 3.525 0 0 0 3.523 3.526zM37.282 180.962a3.524 3.524 0 0 0 3.523-3.526 3.524 3.524 0 1 0-7.046 0 3.524 3.524 0 0 0 3.523 3.526z" fill="#fff"/><path fill="#F5D9BD" d="M71 326h276v30H71z"/></g><defs><clipPath id="clip0_290:8100"><path fill="#fff" d="M0 0h420v340H0z"/></clipPath></defs></svg>
