<svg width="420" height="340" fill="none" xmlns="http://www.w3.org/2000/svg"><g clip-path="url(#clip0_290:8180)"><path fill="#FDF0E5" d="M0 0h420v340H0z"/><g clip-path="url(#clip1_290:8180)"><path d="M67.595 105.379c-1.134.26-1.7 1.207-1.933 2.412-.347 1.791.026 4.138.321 5.413-.502-1.027-.856-1.832-1.615-2.685-.455-.281-1.015-.517-1.66-.482-1.778.134-1.666 3.008-1.5 5.443.15 1.856 3.19 15.616 3.21 15.844.031.327-.072.531-.401.915-.098.013-.221-.01-.32.003-1.367-1.003-2.824-6.477-4.393-9.73-.305-.732-.846-2.215-1.614-2.364-.245-.048-.484.034-.79.295-.14.229-.224.501-.278.779-.204 1.05.115 2.201.335 3.205.406 3.828 3.097 10.663 3.254 12.488.098 1.301-.159 1.475.07 4.403.868 11.48 4.362 8.089 7.604 32.975 1.94.025 3.639-.03 4.608-.097a25.703 25.703 0 0 0 9.75-2.784c-.145-2.047-.073-2.257-.29-5.087a8.852 8.852 0 0 1-.06-1.005c-.276-3.674-.117-3.835-.19-4.779-.019-.228-.032-.487-.083-.721-.013-.259.074-2.517.146-3.88 7.22-14.234 4.905-14.459 6.595-17.752.662-1.281 2.06-2.9 2.176-4.159.456-4.493 2.903-6.1 2.79-7.66-.065-.814-1.44-.953-2.22-.88-3.754.295-4.995 3.579-6.148 7.392-.628.775-1.16 1.377-1.245 1.488-.86 1.147-.956 1.481-1.528 2.299-.008-.29-.016-.58-.054-.876-.092-1.171-.258-1.3-.35-2.471-.033-.487-.035-.968-.075-1.424-.052-.716-.223-1.646-.412-2.644.006-.031-1.032-11.287-1.026-11.318 0 0 .006-.031.037-.025-.623-3.037-1.64-7.656-2.024-8.307-.353-.646-1.11-1.177-1.822-1.124-2.847.216-.276 13.597-1.947 19.424-1.724-3.603-3.244-21.586-6.918-22.524z" fill="#BBB8DC"/><path d="M222.065 309.609l-2.71 13.985-103.551-20.124c4.239-7.409 10.182-17.851 18.539-32.534 1.342.806 2.995 1.319 5.267 1.761 1.781.346 3.986.646 6.65 1.036 8.911 1.539 24.281-8.384 38.186-8.117 11.015.219 21.426 10.956 24.806 9.466 1.889 6.038 6.894 17.871 12.813 34.527z" fill="#fff"/><path d="M245.305 205.022c3.281 5.763 5.73 8.418 4.397 15.303-3.41 17.6-29.586 44.647-40.733 60.903a4.601 4.601 0 0 1-3.059 1.968 4.682 4.682 0 0 1-3.532-.846c-6.664-4.916-16.928-13.126-18.863-13.502-1.32-.257-9.201 6.702-10.246 7.492-10.41-.549-20.607-1.538-27.024-2.625-2.665-.39-4.839-.684-6.651-1.036-2.272-.442-3.926-.955-5.267-1.761-3.053-1.842-4.315-5.196-6.808-12.889-4.391-11.714-8.687-26.55-9.807-40.672-7.369 8.596-16.425 17.344-29.385 14.825-20.269-3.939-20.662-39.578-21.824-49.704a428.254 428.254 0 0 0-1.978-15.122l17.43-5.583c2.419 8.896 6.295 20.799 12.09 32.338 5.363-12.222 13.683-30.661 19.375-34.873 4.836-3.578 15.944-6.962 23.32-9.181a112.27 112.27 0 0 0-.936-5.692c7.655-4.151 16.827-5.765 25.614-6.876a9.86 9.86 0 0 0 1.455 2.685c7.68-1.807 15.464-3.498 25.476-1.552 18.057 3.509 27.693 13.648 35.173 28.494 7.733 12.395 13.488 25.785 21.783 37.906z" fill="#1876DB"/><path d="M206.02 204.941l2.992 27.656 10.066-15.602-13.058-12.054z" fill="#FDF0E5"/><path d="M123.12 137.529c-6.972-1.355-8.361-4.22-7.23-10.056.149-.772.36-1.532.571-2.292.067-.179.097-.333.127-.488.215-1.111-.328-1.762-.179-2.533.096-.494.455-1.033 1.483-1.731-.371-.553-.472-1.021-.4-1.391.233-1.204 2.115-1.704 2.27-2.507a.525.525 0 0 0-.057-.363c-.989-2.788-2.04-6.741-1.627-8.871.484-2.501 2.919-1.58 5.56-2.22 1.674-.411 3.149-1.118 4.525-1.972 6.539-4.144 10.366-12.051 19.118-10.35 1.966.382 5.481 1.482 7.817 3.41-.005.19-.041.376-.071.53-1.083 5.589-12.113 6.265-13.381 12.811-.353 1.822.627 2.525 2.101 2.812 1.689.328 4.056.115 5.807.455 2.15.418 2.795 1.857 2.52 3.278-.814 4.199-8.31 3.415-9.781 11.011-.838 4.323 1.599 9.346 7.618 10.516 3.44.668 7.555.154 11.43-.438.044.104.056.203.1.308-8.757 1.117-17.966 2.756-25.616 6.876-.207-1.066-.714-5.361-.989-6.408-.792-.026-6.772.574-11.716-.387zM183.804 268.433s-10.041 3.303-10.521 7.92c-.48 4.616 3.647 15.062 14.549 18.335 8.309 2.512 8.77 2.762 8.77 2.762l4.344-16.169-17.142-12.848z" fill="#BBB8DC"/><path d="M170.29 98.346c.405.047.78.087 1.179.165 5.774 1.122 9.124 7.188 7.945 13.271-2.255 11.64-16.256 9.56-18.343 20.336-.323 1.668-.111 3.695.401 5.333-3.875.592-8.09.798-11.53.13-6.019-1.17-8.456-6.193-7.618-10.516 1.465-7.565 8.968-6.812 9.781-11.011.275-1.42-.37-2.859-2.52-3.277-1.781-.346-4.118-.128-5.807-.456-1.474-.287-2.453-.989-2.101-2.811 1.269-6.546 12.304-7.253 13.381-12.81.036-.186.066-.34.071-.532-2.36-1.964-5.851-3.027-7.816-3.41-8.753-1.7-12.579 6.207-19.118 10.351-4.345-3.728-6.331-8.12-5.098-14.48 1.387-7.163 6.898-9.617 10.46-8.924 3.593.698 5.888 4.316 9.911 5.098 3.409.662 7.587-3.3 12.93-2.261 6.665 1.295 14.538 8.849 13.892 15.804zM127.79 238.294l9.507-80.415c.145-1.22 1.935-1.155 1.992.071l3.763 80.246a.995.995 0 0 1-.187.631l-6.817 9.46a1 1 0 0 1-1.632-.014l-6.454-9.291a1.007 1.007 0 0 1-.172-.688zM139.977 151.18l5.884-6.856c.598-.696.02-1.763-.889-1.643l-8.182 1.076a1 1 0 0 0-.799 1.361l2.298 5.779a1 1 0 0 0 1.688.283z" fill="#032765"/><path d="M15 215c0-5.523 4.477-10 10-10h369c5.523 0 10 4.477 10 10v127H15V215z" fill="#F5D9BD"/><path d="M404 397v-94.254c-5.174-3.018-9.233-6.746-19.196-6.746-16.782 0-16.782 10.539-33.543 10.539-16.782 0-16.782-10.539-33.563-10.539-16.782 0-16.782 10.539-33.564 10.539-16.781 0-16.801-10.539-33.583-10.539-16.761 0-16.761 10.539-33.543 10.539-4.18 0-7.325-.659-9.943-1.632-7.873-2.969-11.019-8.907-23.6-8.907-16.781 0-16.781 10.539-33.543 10.539-.365 0-.71 0-1.035-.016-8.279-.214-12.297-3.117-16.639-5.822-3.937-2.425-8.117-4.701-15.909-4.701-16.782 0-16.782 10.539-33.543 10.539-2.922 0-5.357-.313-7.427-.857C65.507 303.175 63.092 296 49.233 296c-16.112 0-16.741 9.731-31.656 10.49-.609.033-1.238.049-1.907.049H15c.04.495.081 69.247.081 90.461H404z" fill="#FF9934"/><path fill="#032765" d="M266.917 136h84v56h-84z"/><path fill="#032765" d="M303.917 150h10v56h-10z"/><path fill="#FF9934" d="M201.213 153.612h95.324v52.118h-95.324z"/><path fill="#F5D9BD" d="M207.403 125.89h75.516v27.722h-75.516z"/><path fill="#fff" d="M244.969 153.612h12.502v17.401h-12.502zM240.828 125.89h11.142v13.307h-11.142z"/></g></g><defs><clipPath id="clip0_290:8180"><path fill="#fff" d="M0 0h420v340H0z"/></clipPath><clipPath id="clip1_290:8180"><path fill="#fff" transform="translate(15 -14.94)" d="M0 0h410.113v357.064H0z"/></clipPath></defs></svg>
