<svg width="40" height="40" fill="none" xmlns="http://www.w3.org/2000/svg"><path d="M33.014 40H7.786c-.765 0-1.386-.5-1.386-1.116V6.666c0-.617.62-1.117 1.386-1.117h25.228c.765 0 1.386.5 1.386 1.117v32.218c0 .616-.62 1.116-1.386 1.116z" fill="#FF9A34"/><path d="M30.478 37.266H10.322c-.385 0-.693-.248-.693-.559V6.678c0-.31.308-.558.693-.558h20.156c.385 0 .693.248.693.558v30.03c0 .306-.313.558-.693.558z" fill="#F5D9BD"/><path d="M17.474 26.368h-4.688c-.337 0-.611-.258-.611-.575v-4.418c0-.317.274-.575.611-.575h4.688c.337 0 .611.258.611.575v4.413c0 .322-.274.58-.611.58zM17.474 34.897h-4.688c-.336 0-.61-.258-.61-.575v-4.41c0-.317.274-.575.61-.575h4.688c.337 0 .611.258.611.575v4.41c0 .316-.274.575-.611.575z" fill="#fff"/><path d="M27.151 4.196C23.431 4.196 24.963 0 20.819 0h-.838c-4.144 0-2.612 4.196-6.332 4.196C8.113 4.196 8.83 8.8 8.83 8.8h23.14s.717-4.604-4.819-4.604zm-6.597.768c-.852 0-1.541-.657-1.541-1.47 0-.814.689-1.472 1.54-1.472.853 0 1.542.658 1.542 1.471 0 .81-.69 1.471-1.541 1.471z" fill="#032765"/><path d="M17.474 17.858h-4.688c-.337 0-.611-.258-.611-.575v-4.41c0-.316.274-.575.611-.575h4.688c.337 0 .611.258.611.575v4.41c0 .317-.274.575-.611.575z" fill="#fff"/><rect x="20" y="12.8" width="8.8" height="1.6" rx=".8" fill="#032765"/><rect x="20" y="21.6" width="8.8" height="1.6" rx=".8" fill="#032765"/><rect x="20" y="29.6" width="8.8" height="1.6" rx=".8" fill="#032765"/><rect x="20" y="15.2" width="7.2" height="1.6" rx=".8" fill="#032765"/><rect x="20" y="24" width="7.2" height="1.6" rx=".8" fill="#032765"/><rect x="20" y="32" width="7.2" height="1.6" rx=".8" fill="#032765"/></svg>
