<svg width="44" height="44" fill="none" xmlns="http://www.w3.org/2000/svg"><g clip-path="url(#clip0_2940:20211)"><path d="M30.305 23.608l-7.322-7.09c-1.117-1.148-7.106-2.59-9.013-4.55l-.886-.92-8.205 8.583.928.94c1.99 2.045 13.713 14.387 13.713 14.387" fill="#FF9300"/><path d="M26.252 36.672l-.78.801a1.2 1.2 0 0 1-1.727 0l-5.24-5.39 2.506-2.577 5.245 5.39c.471.49.471 1.287-.004 1.776z" fill="#FF9300"/><path d="M29.128 34.475l-.78.802a1.2 1.2 0 0 1-1.727 0l-5.72-5.88 2.506-2.576 5.721 5.879a1.282 1.282 0 0 1 0 1.775z" fill="#FF9300"/><path d="M31.63 31.898l-.78.802a1.2 1.2 0 0 1-1.727 0l-5.78-5.95 2.507-2.577 5.785 5.946a1.283 1.283 0 0 1-.005 1.779z" fill="#FF9300"/><path d="M33.81 28.984l-.78.802a1.2 1.2 0 0 1-1.727 0l-5.13-5.276 2.507-2.577 5.134 5.277c.471.488.471 1.286-.004 1.774z" fill="#FF9300"/><path d="M38.976 19.722l-6.228 6.396-4.165-4.085-5.153-5.059a5.003 5.003 0 0 0-4.224 1.5l-2.457 2.52a1.73 1.73 0 0 1-2.507 0 1.84 1.84 0 0 1-.517-1.291c0-.465.171-.93.517-1.286l3.454-3.55c3.389-3.487 8.85-1.01 12.97-3.824l8.31 8.679zM13.809 29.407c-.72.74-1.87.764-2.558.052-.688-.712-.665-1.893.05-2.629l2.401-2.467c.72-.74 1.87-.764 2.558-.053.688.712.665 1.894-.05 2.63l-2.402 2.467z" fill="#F6D5B6"/><path d="M16.315 31.983c-.72.74-1.87.764-2.558.052-.688-.711-.664-1.893.051-2.628l3.652-3.754c.72-.74 1.87-.764 2.558-.052.688.707.665 1.893-.05 2.629l-3.653 3.753z" fill="#F6D5B6"/><path d="M18.823 34.56c-.72.74-1.87.764-2.558.052-.688-.712-.665-1.893.05-2.629l3.652-3.753c.72-.74 1.87-.764 2.558-.052.688.711.665 1.893-.05 2.628l-3.652 3.754z" fill="#F6D5B6"/><path d="M21.325 37.137c-.72.74-1.87.764-2.558.052-.688-.712-.665-1.894.05-2.629l2.088-2.145c.72-.74 1.87-.764 2.558-.052.688.712.665 1.893-.051 2.629l-2.087 2.145z" fill="#F6D5B6"/><path d="M13.343 11.66l-7.992 8.214a1.307 1.307 0 0 1-1.879 0l-3.084-3.17a1.396 1.396 0 0 1 0-1.93l7.987-8.215a1.307 1.307 0 0 1 1.88 0l3.084 3.17c.521.532.521 1.4.004 1.931z" fill="#032765"/><path d="M38.649 19.873l-7.992-8.213a1.396 1.396 0 0 1 0-1.932l3.084-3.17a1.307 1.307 0 0 1 1.879 0l7.992 8.214c.517.532.517 1.4 0 1.932l-3.084 3.17a1.307 1.307 0 0 1-1.88 0z" fill="#FF9300"/><path d="M34.249 11.39c.612 0 1.108-.51 1.108-1.14 0-.628-.496-1.138-1.108-1.138-.612 0-1.108.51-1.108 1.139s.496 1.138 1.108 1.138zM37.108 14.278c.612 0 1.108-.51 1.108-1.14 0-.628-.496-1.138-1.108-1.138-.612 0-1.108.51-1.108 1.139s.496 1.139 1.108 1.139zM40.108 17.278c.612 0 1.108-.51 1.108-1.14 0-.628-.496-1.138-1.108-1.138-.612 0-1.108.51-1.108 1.139s.496 1.139 1.108 1.139z" fill="#fff"/></g><defs><clipPath id="clip0_2940:20211"><path fill="#fff" d="M0 0h44v44H0z"/></clipPath></defs></svg>
