<svg width="157" height="48" fill="none" xmlns="http://www.w3.org/2000/svg"><path fill-rule="evenodd" clip-rule="evenodd" d="M150.857 0H5.714A5.715 5.715 0 0 0 0 5.714v36.572A5.714 5.714 0 0 0 5.714 48h145.143a5.713 5.713 0 0 0 5.714-5.714V5.714A5.714 5.714 0 0 0 150.857 0z" fill="#000"/><path fill-rule="evenodd" clip-rule="evenodd" d="M150.857 0H5.714A5.715 5.715 0 0 0 0 5.714v36.572A5.714 5.714 0 0 0 5.714 48h145.143a5.713 5.713 0 0 0 5.714-5.714V5.714A5.714 5.714 0 0 0 150.857 0m0 1.143a4.572 4.572 0 0 1 4.572 4.571v36.572a4.572 4.572 0 0 1-4.572 4.571H5.714a4.572 4.572 0 0 1-4.571-4.571V5.714a4.572 4.572 0 0 1 4.571-4.571h145.143" fill="#000"/><path fill-rule="evenodd" clip-rule="evenodd" d="M79.086 16.492h-1.143v-3.086c0-.953-.38-1.429-1.143-1.429a1.138 1.138 0 0 0-.868.389c-.22.257-.339.586-.332.926v3.2h-1.143v-5.383h.972v.845c.144-.268.358-.492.617-.65.326-.2.703-.305 1.086-.298.468-.015.922.162 1.257.491.443.483.667 1.13.617 1.783v3.223l.08-.011zm-6.217-5.383l-1.68 5.383h-1.143l-.697-2.286c-.175-.572-.32-1.15-.434-1.737-.105.588-.25 1.169-.435 1.737l-.743 2.286h-1.142l-1.52-5.383h1.211l.629 2.605c.145.61.266 1.184.365 1.726.092-.449.24-1.02.446-1.714l.766-2.572h.994l.731 2.515c.175.617.32 1.207.435 1.771.089-.596.211-1.187.365-1.771l.652-2.514h1.143l.057-.046zm-10.217 2.605a2.419 2.419 0 0 0-.32-1.142 1.142 1.142 0 0 0-1.075-.64 1.2 1.2 0 0 0-1.142.64 2.476 2.476 0 0 0-.32 1.303c-.013.447.098.89.32 1.28.222.418.668.668 1.142.64.456.015.878-.24 1.075-.652.235-.41.347-.878.32-1.349v-.08zm1.245 0a2.962 2.962 0 0 1-.708 2.035 2.54 2.54 0 0 1-1.977.823 2.411 2.411 0 0 1-1.886-.789 2.872 2.872 0 0 1-.709-1.989 2.922 2.922 0 0 1 .72-2.057 2.514 2.514 0 0 1 1.955-.8 2.468 2.468 0 0 1 1.908.789c.478.55.728 1.26.697 1.988zm-8.011-1.142a2.732 2.732 0 0 0-.697-2.012 2.73 2.73 0 0 0-2.023-.697 5.095 5.095 0 0 0-.96.08v5.589c.27.017.542.017.811 0a2.837 2.837 0 0 0 2.172-.675 3.063 3.063 0 0 0 .743-2.285h-.046zm1.257 0A3.749 3.749 0 0 1 56 15.623a4.818 4.818 0 0 1-3.177.937 15.156 15.156 0 0 1-1.748-.091V9.143a12.919 12.919 0 0 1 2.068-.148 4.443 4.443 0 0 1 2.96.857 3.43 3.43 0 0 1 1.04 2.72zm81.326 17.943a3.316 3.316 0 0 0-.469-1.876 2.13 2.13 0 0 0-1.943-1.016 2.286 2.286 0 0 0-1.944.994 3.592 3.592 0 0 0-.718 1.898h5.074zm2.286.628c.008.383-.024.766-.092 1.143h-7.315a3.19 3.19 0 0 0 1.064 2.48c.68.531 1.525.803 2.388.766a8.074 8.074 0 0 0 2.96-.516l.377 1.693a9.162 9.162 0 0 1-3.68.674 5.333 5.333 0 0 1-4.012-1.497 5.544 5.544 0 0 1-1.45-4.023 6.28 6.28 0 0 1 1.358-4.127 4.67 4.67 0 0 1 3.83-1.759 4.081 4.081 0 0 1 3.589 1.76 5.946 5.946 0 0 1 .983 3.406zm-10.903-2.823a4.206 4.206 0 0 0-.766-.068 2.286 2.286 0 0 0-1.989.971 3.654 3.654 0 0 0-.606 2.172v5.714h-2.434V29.6c0-1.265-.03-2.408-.091-3.428h2.126l.091 2.102h.069a3.745 3.745 0 0 1 1.223-1.737 2.938 2.938 0 0 1 1.76-.582c.202-.016.403-.016.605 0v2.285l.012.08zm-10.446 3.337a4.96 4.96 0 0 0-.651-2.605 2.415 2.415 0 0 0-2.183-1.316 2.45 2.45 0 0 0-2.286 1.316 5.04 5.04 0 0 0-.653 2.651 4.952 4.952 0 0 0 .653 2.583c.44.85 1.33 1.366 2.286 1.326a2.433 2.433 0 0 0 2.159-1.326c.466-.796.7-1.706.675-2.629zm2.526-.08a6.009 6.009 0 0 1-1.441 4.149 5.166 5.166 0 0 1-4.022 1.669 4.909 4.909 0 0 1-3.852-1.6 5.822 5.822 0 0 1-1.428-4.035 5.956 5.956 0 0 1 1.474-4.172 5.114 5.114 0 0 1 3.976-1.622 5.004 5.004 0 0 1 3.887 1.6 5.788 5.788 0 0 1 1.406 4.011zm-12.115-3.565h-2.685v5.325c0 1.356.472 2.035 1.417 2.035.366.007.73-.031 1.084-.116l.082 1.853a5.544 5.544 0 0 1-1.898.274 2.929 2.929 0 0 1-2.285-.88 4.337 4.337 0 0 1-.812-2.961v-5.53h-1.6v-1.829h1.6v-2.011l2.389-.72v2.731h2.686v1.829h.022zm-8.102 4.867a4.06 4.06 0 0 1-1.349 3.156 5.976 5.976 0 0 1-4.137 1.325 7.252 7.252 0 0 1-3.943-.948l.56-2.035c1.06.645 2.279.98 3.52.972a3.327 3.327 0 0 0 2.148-.618 2.022 2.022 0 0 0 .766-1.657 2.117 2.117 0 0 0-.628-1.554 5.872 5.872 0 0 0-2.092-1.143c-2.66-1.013-3.988-2.476-3.988-4.388A3.862 3.862 0 0 1 94 22.857a5.518 5.518 0 0 1 3.726-1.142 7.377 7.377 0 0 1 3.429.72l-.583 1.988a5.99 5.99 0 0 0-2.915-.697 2.932 2.932 0 0 0-2.011.629 1.8 1.8 0 0 0-.606 1.37 1.85 1.85 0 0 0 .696 1.485 7.833 7.833 0 0 0 2.218 1.143 7.523 7.523 0 0 1 2.892 1.853c.614.75.925 1.705.869 2.673zm-16.538-1.256a4.577 4.577 0 0 0-.72-2.64 2.492 2.492 0 0 0-2.171-1.086 2.535 2.535 0 0 0-1.634.595c-.49.397-.828.95-.96 1.565a3.201 3.201 0 0 0-.115.743v1.829c-.02.742.242 1.465.73 2.023a2.436 2.436 0 0 0 1.979.777c.85.035 1.66-.366 2.148-1.063a4.667 4.667 0 0 0 .743-2.743zm2.48-.091a6.232 6.232 0 0 1-1.508 4.423 4.415 4.415 0 0 1-3.36 1.44c-1.245.099-2.441-.5-3.109-1.555v5.783H77.19V29.795c0-1.174-.031-2.378-.092-3.612h2.149l.137 1.737a4.332 4.332 0 0 1 6.937-.434 6.055 6.055 0 0 1 1.337 4.046zm-15.097.091a4.568 4.568 0 0 0-.72-2.64 2.49 2.49 0 0 0-2.126-1.086 2.521 2.521 0 0 0-1.634.595c-.489.396-.827.95-.96 1.565a3.143 3.143 0 0 0-.114.743v1.829c-.022.743.24 1.466.731 2.023a2.435 2.435 0 0 0 1.909.822c.85.036 1.66-.364 2.148-1.062a4.679 4.679 0 0 0 .766-2.789zm2.48-.091a6.232 6.232 0 0 1-1.508 4.423 4.429 4.429 0 0 1-3.36 1.44 3.36 3.36 0 0 1-3.109-1.555v5.783h-2.491V29.795c0-1.174-.031-2.378-.092-3.612h2.149l.137 1.737a4.333 4.333 0 0 1 6.937-.434 6.044 6.044 0 0 1 1.337 4.046zm-17.028-.675l-1.28-3.965c-.145-.443-.389-1.406-.732-2.892-.152.648-.392 1.604-.72 2.869l-1.36 3.988h4.092zm4.445 6.286h-2.605l-1.417-4.458h-4.938l-1.36 4.458h-2.525l4.891-15.2h3.029l4.925 15.2zM31.92 12.926a6.53 6.53 0 0 0 1.497-4.674 6.627 6.627 0 0 0-4.297 2.217 6.206 6.206 0 0 0-1.531 4.503 5.483 5.483 0 0 0 4.331-2.046zm3.657 10.823a6.627 6.627 0 0 1 3.155-5.554 6.777 6.777 0 0 0-5.349-2.892c-2.286-.24-4.423 1.349-5.577 1.349s-2.937-1.326-4.834-1.28a7.119 7.119 0 0 0-5.989 3.657c-2.594 4.48-.663 11.074 1.817 14.697 1.246 1.77 2.697 3.76 4.572 3.691 1.874-.068 2.548-1.142 4.788-1.142s2.869 1.142 4.812 1.142c1.942 0 3.245-1.782 4.445-3.577a14.682 14.682 0 0 0 2.035-4.137 6.4 6.4 0 0 1-3.909-5.886l.034-.068z" fill="#fff"/><mask id="a" style="mask-type:alpha" maskUnits="userSpaceOnUse" x="0" y="0" width="157" height="48"><path fill-rule="evenodd" clip-rule="evenodd" d="M0 48h156.571V0H0v48z" fill="#fff"/></mask><g mask="url(#a)" fill-rule="evenodd" clip-rule="evenodd" fill="#fff"><path d="M81.189 16.503h1.2V8.64h-1.2v7.863zM138.526 13.234a1.61 1.61 0 0 0-.229-.925 1.039 1.039 0 0 0-.948-.503 1.141 1.141 0 0 0-.949.491c-.202.27-.326.59-.354.926h2.491l-.011.011zm1.143.309c.017.178.017.358 0 .537H136c-.016.465.177.914.526 1.223.325.255.73.387 1.143.377.496.007.987-.078 1.452-.251l.182.834a4.506 4.506 0 0 1-1.806.331 2.612 2.612 0 0 1-1.966-.742 2.723 2.723 0 0 1-.708-1.978 3.079 3.079 0 0 1 .663-2.022 2.281 2.281 0 0 1 1.885-.869 2 2 0 0 1 1.76.869c.351.493.54 1.085.538 1.691zm-6.548 2.949h-1.143v-3.063c0-.968-.363-1.452-1.087-1.452a1.142 1.142 0 0 0-1.142.846c-.021.144-.021.29 0 .434v3.246h-1.143V8.64h1.143v3.246c.338-.57.961-.906 1.622-.88.44-.023.872.129 1.2.423.438.496.656 1.146.606 1.805v3.2l-.056.058zM126.789 12h-1.315v2.617c0 .663.24.995.697.995.179.022.359.022.538 0v.914c-.302.1-.62.146-.938.137a1.43 1.43 0 0 1-1.142-.434 2.105 2.105 0 0 1-.4-1.452V12h-.789v-.891h.789v-.995l1.142-.354v1.349h1.315V12h.103zm-8.069 4.492h-1.143v-3.086c0-.953-.38-1.429-1.143-1.429a1.076 1.076 0 0 0-.868.389c-.22.258-.337.587-.332.926v3.2h-1.143v-5.383h1.052v.845c.145-.267.359-.492.617-.651a2.016 2.016 0 0 1 1.143-.297c.468-.015.923.162 1.257.491a2.37 2.37 0 0 1 .617 1.783v3.223l-.057-.011zm-7.68-2.778a2.426 2.426 0 0 0-.32-1.142 1.141 1.141 0 0 0-1.074-.64 1.202 1.202 0 0 0-1.075.64 2.494 2.494 0 0 0-.32 1.302c-.002.429.108.85.32 1.223.223.419.67.669 1.143.64.456.017.879-.24 1.075-.651.2-.399.286-.846.251-1.292v-.08zm1.246 0a2.96 2.96 0 0 1-.709 2.035 2.525 2.525 0 0 1-1.977.823 2.413 2.413 0 0 1-1.886-.789 2.872 2.872 0 0 1-.708-1.989 2.93 2.93 0 0 1 .731-2.057 2.515 2.515 0 0 1 1.977-.743 2.461 2.461 0 0 1 1.909.789c.452.54.689 1.227.663 1.931zm-11.486.492v-.88a1.699 1.699 0 0 0 0-.377 1.353 1.353 0 0 0-.434-.732 1.144 1.144 0 0 0-.8-.297 1.233 1.233 0 0 0-1.052.537c-.27.401-.405.877-.388 1.36-.023.463.105.92.365 1.303.237.346.632.548 1.052.537.37.014.722-.152.948-.445a1.47 1.47 0 0 0 .309-.995v-.011zm1.246 2.286h-1.063v-.869a1.797 1.797 0 0 1-1.726.983 2.026 2.026 0 0 1-1.623-.766 2.985 2.985 0 0 1-.64-1.988 3.113 3.113 0 0 1 .699-2.115 2.142 2.142 0 0 1 1.667-.754 1.612 1.612 0 0 1 1.52.731V8.64h1.143v6.412c-.015.517-.007.997.023 1.44zm-8.057-1.852v-.823c-1.318 0-1.978.363-1.978 1.086a.807.807 0 0 0 .229.629c.161.14.37.213.583.205.265.004.524-.085.731-.251.213-.15.36-.374.412-.629.015-.072.023-.144.023-.217zm1.245 1.852H94.16l-.091-.618c-.368.498-.96.776-1.578.743a1.624 1.624 0 0 1-1.234-.491 1.53 1.53 0 0 1-.422-1.143 1.676 1.676 0 0 1 .822-1.509c.7-.379 1.492-.557 2.286-.514v-.046a.96.96 0 0 0-1.143-1.062c-.497-.01-.987.129-1.406.4l-.205-.823a3.427 3.427 0 0 1 1.851-.469 1.919 1.919 0 0 1 2.114 2.229v1.988c-.008.44.019.88.08 1.315zm-7.04-2.778a2.446 2.446 0 0 0-.32-1.142 1.14 1.14 0 0 0-1.074-.64 1.143 1.143 0 0 0-1.086.64 2.486 2.486 0 0 0-.32 1.302c-.002.429.108.85.32 1.223.223.419.67.669 1.143.64.456.017.879-.24 1.074-.651.205-.398.296-.846.263-1.292v-.08zm1.246 0a2.96 2.96 0 0 1-.709 2.035 2.536 2.536 0 0 1-1.977.823 2.403 2.403 0 0 1-1.885-.789 2.87 2.87 0 0 1-.698-1.989 2.937 2.937 0 0 1 .72-2.057 2.51 2.51 0 0 1 1.966-.743 2.469 2.469 0 0 1 1.909.789c.457.537.697 1.226.674 1.931z"/></g></svg>
