<svg width="120" height="26" viewBox="0 0 120 26" xmlns="http://www.w3.org/2000/svg" xmlns:xlink="http://www.w3.org/1999/xlink"><defs><path id="a" d="M119.617 25.855V0H0v25.855z"/></defs><g fill="none" fill-rule="evenodd"><mask id="b" fill="#fff"><use xlink:href="#a"/></mask><path d="M32.71 10.55l-1.842-.777c-1.13-.46-2.175-.86-2.175-1.927 0-1.009.837-1.614 2.135-1.614 1.174 0 2.115.44 2.972 1.174l1.258-1.555a6.076 6.076 0 0 0-4.23-1.739c-2.66 0-4.587 1.68-4.587 3.859 0 2.01 1.406 3.08 2.764 3.645l1.863.821c1.258.521 2.135.878 2.135 2.011 0 1.07-.857 1.76-2.383 1.76-1.278 0-2.596-.63-3.581-1.551l-1.403 1.658a7.037 7.037 0 0 0 4.92 2.01c3.076 0 4.92-1.846 4.92-4.065 0-1.99-1.13-3.02-2.765-3.71zm21.208 1.467c.213-1.72 1.258-2.62 2.472-2.62 1.402 0 2.095.985 2.095 2.62h-4.567zm2.408-4.487c-2.408 0-4.731 2.055-4.731 5.408 0 3.397 2.22 5.388 5.068 5.388 1.297 0 2.531-.46 3.516-1.11l-.816-1.51c-.753.481-1.506.753-2.388.753-1.65 0-2.824-1.045-3.032-2.912h6.53c.063-.253.103-.673.103-1.134 0-2.872-1.462-4.883-4.25-4.883zm-9.21 2.075h-.083l-.169-1.823h-1.987v10.291h2.408v-6.289c.624-1.55 1.61-2.115 2.427-2.115.441 0 .714.065 1.066.169l.42-2.1c-.312-.144-.649-.208-1.174-.208-1.085 0-2.175.732-2.908 2.075zm-5.36 6.795c-.985 0-1.446-.59-1.446-1.803V9.689h2.62V7.782h-2.62V4.974h-2.007l-.292 2.808-1.594.105v1.802h1.465v4.908c0 2.218.882 3.729 3.265 3.729.818 0 1.531-.188 2.095-.377l-.416-1.782a3.016 3.016 0 0 1-1.07.233zm22.57-4.383c.208-1.72 1.254-2.62 2.472-2.62 1.403 0 2.09.985 2.09 2.62h-4.562zm2.407-4.487c-2.407 0-4.73 2.055-4.73 5.408 0 3.397 2.22 5.388 5.063 5.388 1.302 0 2.536-.46 3.518-1.11l-.814-1.51c-.757.481-1.51.753-2.387.753-1.655 0-2.829-1.045-3.037-2.912h6.533c.06-.253.105-.673.105-1.134 0-2.872-1.466-4.883-4.25-4.883zm50.56.252l-1.546 5.052c-.252.921-.525 1.95-.777 2.892h-.084c-.313-.965-.605-1.99-.898-2.892l-1.783-5.052h-2.447l4.038 10.167-.188.65c-.333 1.025-.961 1.762-2.051 1.762-.248 0-.545-.084-.733-.148l-.437 1.887c.377.124.773.208 1.338.208 2.24 0 3.308-1.447 4.167-3.773l3.725-10.753h-2.324zM77.39 16.4c-.986 0-1.447-.59-1.447-1.803V9.689h2.62V7.782h-2.62V4.974h-2.007l-.292 2.808-1.595.105v1.802h1.466v4.908c0 2.218.882 3.729 3.265 3.729.818 0 1.53-.188 2.096-.377l-.417-1.782a3.015 3.015 0 0 1-1.07.233zm28.746-4.383c-1.11-.4-2.135-.733-2.135-1.53 0-.65.481-1.135 1.506-1.135.818 0 1.552.357 2.26.882l1.11-1.467c-.837-.648-1.987-1.237-3.413-1.237-2.303 0-3.745 1.278-3.745 3.08 0 1.719 1.526 2.496 2.887 3.002 1.09.416 2.2.792 2.2 1.653 0 .714-.525 1.238-1.635 1.238-1.046 0-1.926-.44-2.848-1.153l-1.13 1.55c1.005.817 2.492 1.426 3.894 1.426 2.596 0 3.998-1.426 3.998-3.185 0-1.93-1.547-2.6-2.949-3.124zm-22.173-.044h4.92v-2.05h-4.92V6.42h5.8V4.365h-8.227v13.708h8.437V16.02h-6.01v-4.046zm13.545 3.332c-.753.714-1.402 1.134-2.24 1.134-.857 0-1.466-.396-1.466-1.322 0-1.026.921-1.759 3.706-2.115v2.303zM96.086 7.53c-1.635 0-3.077.629-4.207 1.342l.877 1.614c.902-.545 1.864-1.005 2.889-1.005 1.382 0 1.843.921 1.863 2.01-4.206.462-6.05 1.615-6.05 3.814 0 1.803 1.259 3.02 3.058 3.02 1.213 0 2.262-.608 3.18-1.38h.064l.188 1.128h1.968v-6.1c0-2.869-1.255-4.443-3.83-4.443zM12.732 9.196h1.346V7.58h-1.346v1.616zm-5.387 0h1.348V7.58H7.345v1.616zm2.694 2.693h1.346v-1.616h-1.346v1.616zm0-2.693h1.346V7.58h-1.346v1.616zm2.693 5.386h1.346v-1.616h-1.346v1.616zm3.5-8.078l-.537.537v9.156h-4.31v-3.23h-1.346v3.23H5.73V7.041l-.54-.537V5.426h11.043v1.078zM10.713 0C4.799 0 0 4.796 0 10.712c0 5.916 4.798 10.712 10.713 10.712v4.431l7.514-7.514a10.674 10.674 0 0 0 3.197-7.629C21.424 4.796 16.628 0 10.713 0zm2.02 11.889h1.346v-1.616h-1.346v1.616zm-5.387 2.693h1.348v-1.616H7.345v1.616zm0-2.693h1.348v-1.616H7.345v1.616z" fill="#FFF" mask="url(#b)"/></g></svg>
