<svg width="272" height="60" viewBox="0 0 272 60" fill="none" xmlns="http://www.w3.org/2000/svg">
<path fill-rule="evenodd" clip-rule="evenodd" d="M34.411 15.909C34.6668 15.843 34.7848 15.939 34.9382 16.1205C35.8137 17.16 38.6335 20.7855 39.4009 21.777C39.4571 21.8473 39.4817 21.9398 39.4683 22.0307C39.455 22.1216 39.405 22.2019 39.3313 22.251C33.6463 26.934 27.3233 33.558 23.7972 38.301C23.7219 38.4015 23.7844 38.409 23.8341 38.3865C29.9753 35.5965 44.3951 31.146 50.9001 29.898V21.2115L25.4728 0L0 21.2115V30.705C7.89639 25.752 26.1436 18.0855 34.411 15.909ZM152.611 2.952H163.799V58.7835H152.611V2.952ZM144.322 2.9535H133.136V58.785H144.322V2.9535ZM218.605 22.251H207.552L218.745 58.791H229.036L231.846 49.5525C232.962 45.882 234.824 39.03 234.824 39.03C234.835 38.9919 234.868 38.9657 234.905 38.9657C234.943 38.9657 234.976 38.9919 234.987 39.03C234.987 39.03 236.849 46.0155 237.908 49.6155L240.665 58.7835H250.774L261.887 22.251H251.614L248.409 33.303C247.352 37.005 245.557 43.836 245.557 43.836C245.546 43.8741 245.513 43.9003 245.475 43.9003C245.437 43.9003 245.404 43.8741 245.393 43.836C245.393 43.836 243.667 37.0905 242.551 33.303L239.249 22.251H231.086L227.726 33.303C226.672 36.837 224.824 43.839 224.824 43.839C224.812 43.8748 224.78 43.8987 224.744 43.8987C224.708 43.8987 224.675 43.8748 224.663 43.839C224.663 43.839 222.877 36.9645 221.808 33.303L218.605 22.251ZM169.336 40.6425C169.336 29.5425 177.818 21.321 188.196 21.321C198.47 21.321 206.956 29.547 206.956 40.6425C206.956 51.774 198.474 60 188.196 60C177.821 60 169.336 51.774 169.336 40.65V40.6425ZM196.22 40.6425C196.22 35.2065 192.546 31.5075 188.196 31.5075C183.742 31.5075 180.068 35.2065 180.068 40.6425C180.068 46.1145 183.742 49.7775 188.196 49.7775C192.546 49.7775 196.22 46.1145 196.22 40.6425ZM68.4197 8.1195V18.8835H88.192C88.273 18.8835 88.3028 18.9615 88.2616 19.0335L68.4112 54.6375L68.3781 54.7016C67.9284 55.5727 67.82 55.7827 67.82 56.685V58.785H106.335V48.039H84.9388C84.9049 48.0396 84.8736 48.0196 84.8585 47.9876C84.8433 47.9556 84.8469 47.9173 84.8677 47.889L104.948 11.8155C104.966 11.7762 104.984 11.7382 105.002 11.7005C105.143 11.4013 105.275 11.1208 105.275 10.3695L105.282 8.1195H68.4197ZM119.053 3.9525C122.54 3.9525 125.423 6.9225 125.423 10.581C125.423 14.2395 122.54 17.2155 119.053 17.2155C115.565 17.2155 112.684 14.2455 112.684 10.5855C112.684 6.9255 115.565 3.9555 119.053 3.9555V3.9525ZM124.645 22.2525V58.785H113.46V22.2525H124.645ZM13.1749 52.305C13.3131 52.4739 13.5478 52.5103 13.7263 52.3905C23.1704 47.256 43.9475 40.737 50.8987 39.4905V59.0055H0V38.7285C5.23157 35.604 19.3686 29.1945 24.3429 27.4785C24.4424 27.444 24.4652 27.507 24.3799 27.573C19.606 31.3155 12.1189 40.1475 8.45209 45.825C8.28439 46.089 8.29433 46.1745 8.42651 46.3365L13.1749 52.305ZM267.687 15.2595C268.655 15.2595 269.346 15.996 269.346 17.046C269.346 17.8395 268.938 18.4665 268.317 18.7155L269.269 20.3655H268.365L267.481 18.831H266.701V20.3595H265.906V15.2595H267.687ZM266.701 18.081H267.639C268.164 18.081 268.552 17.6505 268.552 17.052C268.552 16.4535 268.166 16.0155 267.64 16.0155H266.701V18.081ZM267.447 13.4895C265.758 13.4895 264.235 14.5634 263.589 16.2104C262.943 17.8573 263.3 19.753 264.495 21.0133C265.689 22.2735 267.485 22.6502 269.046 21.9676C270.606 21.285 271.623 19.6776 271.622 17.895C271.619 15.4627 269.751 13.492 267.447 13.4895ZM267.447 21.456C266.082 21.456 264.852 20.5884 264.33 19.2577C263.807 17.9271 264.096 16.3954 265.061 15.377C266.026 14.3586 267.477 14.0539 268.738 14.6051C269.999 15.1562 270.821 16.4547 270.821 17.895C270.818 19.8607 269.309 21.4535 267.447 21.456Z" fill="#006AFF"/>
</svg>
